<svg xmlns="http://www.w3.org/2000/svg" width="47" height="53" viewBox="0 0 47 53"><path fill="#0c9395" d="M18.58 13.96h-1.83c-.04 0-.18-.03-.18-.17v-1.84a1.71 1.71 0 0 0-3.41 0v1.8c0 .18-.13.21-.25.21h-1.77a1.71 1.71 0 0 0 0 3.42h1.84c.18 0 .18.14.18.2v1.81a1.7 1.7 0 0 0 3.41 0v-1.84c0-.16.23-.17.25-.17h1.76a1.71 1.71 0 0 0 0-3.42zm28.4 34.67V4.36c0-2.4-1.96-4.36-4.36-4.36H4.35A4.36 4.36 0 0 0 0 4.36v44.27c0 2.4 1.95 4.35 4.35 4.35h38.27c2.4 0 4.35-1.95 4.35-4.35zM44.14 2c.46 0 .85.38.85.84v47.32c0 .45-.4.84-.85.84H2.85a.86.86 0 0 1-.84-.84V2.85c0-.46 1.92-1.28 2.34-1.28zm-7.2 26.73a1 1 0 0 0-1-1H11.02a1 1 0 1 0 0 2h24.93a1 1 0 0 0 1-1zm.78-13.07c0-.98-.8-1.78-1.78-1.78H29.1a1.78 1.78 0 1 0 0 3.57h6.85c.98 0 1.78-.8 1.78-1.79zm-.79 20.16a1 1 0 0 0-1-1H11.03a1 1 0 1 0 0 2h24.93a1 1 0 0 0 1-1zm.42 9.64c0-.6-1.48-2.24-2.03-2.24H10.41a1 1 0 1 0 0 2h24.92c.55 0 2.03.83 2.03.24z"/></svg>