<svg xmlns="http://www.w3.org/2000/svg" width="51" height="50" viewBox="0 0 51 50"><path fill="#0c9395" d="M19.84 24.2H3.97A4 4 0 0 1 0 20.15V4.03A4 4 0 0 1 3.97 0h15.87a4 4 0 0 1 3.97 4.03v16.13a4 4 0 0 1-3.97 4.03zM3.97 1.6a2.4 2.4 0 0 0-2.38 2.42v16.13a2.4 2.4 0 0 0 2.38 2.42h15.87a2.4 2.4 0 0 0 2.38-2.42V4.03a2.4 2.4 0 0 0-2.38-2.42zM19.05 12.1H12.7v6.45a.8.8 0 0 1-.79.8.8.8 0 0 1-.8-.8V12.1H5.56a.8.8 0 0 1-.8-.81c0-.45.36-.8.8-.8h5.55V4.83c0-.45.36-.8.8-.8a.8.8 0 0 1 .79.8v5.64h6.35a.8.8 0 0 1 .79.8.8.8 0 0 1-.79.82zm26.99 12.1H30.16a4 4 0 0 1-3.97-4.04V4.03A4 4 0 0 1 30.16 0h15.88c2.18 0 3.97 1.8 3.97 4.03v16.13a4.01 4.01 0 0 1-3.97 4.03zM30.16 1.6a2.4 2.4 0 0 0-2.38 2.42v16.13a2.4 2.4 0 0 0 2.38 2.42h15.88a2.4 2.4 0 0 0 2.38-2.42V4.03a2.4 2.4 0 0 0-2.38-2.42zm13.08 15.54a.8.8 0 0 1-.57-.24l-4.49-4.56-4.49 4.56a.76.76 0 0 1-.56.24.8.8 0 0 1-.56-.24.81.81 0 0 1 0-1.14l4.49-4.56-3.93-4a.81.81 0 0 1 0-1.13.78.78 0 0 1 1.12 0l3.93 3.99 3.93-4a.8.8 0 0 1 1.13 0c.31.32.31.83 0 1.15l-3.93 3.99 4.49 4.56c.31.32.31.83 0 1.14a.8.8 0 0 1-.56.24zM19.84 50H3.97A4 4 0 0 1 0 45.96V29.84a4 4 0 0 1 3.97-4.04h15.87a4 4 0 0 1 3.97 4.04v16.12A4 4 0 0 1 19.84 50zM3.97 27.42a2.4 2.4 0 0 0-2.38 2.42v16.12a2.4 2.4 0 0 0 2.38 2.42h15.87a2.4 2.4 0 0 0 2.38-2.42V29.84a2.4 2.4 0 0 0-2.38-2.42zm15.08 8.87H5.55a.8.8 0 0 1-.79-.8c0-.46.36-.82.8-.82h13.49a.8.8 0 0 1 .79.81.8.8 0 0 1-.79.8zm25.4 2.42H30.96a.8.8 0 0 1-.8-.81c0-.45.36-.8.8-.8h13.49a.8.8 0 0 1 .79.8.8.8 0 0 1-.79.8zm-25.4 3.22H5.55a.8.8 0 0 1-.79-.8c0-.45.36-.81.8-.81h13.49a.8.8 0 0 1 .79.8.8.8 0 0 1-.79.81zM46.04 50H30.16a4 4 0 0 1-3.97-4.04V29.84a4 4 0 0 1 3.97-4.04h15.88c2.18 0 3.97 1.81 3.97 4.04v16.12A4.01 4.01 0 0 1 46.04 50zM30.16 27.42a2.4 2.4 0 0 0-2.38 2.42v16.12a2.4 2.4 0 0 0 2.38 2.42h15.88a2.4 2.4 0 0 0 2.38-2.42V29.84a2.4 2.4 0 0 0-2.38-2.42z"/></svg>