<svg xmlns="http://www.w3.org/2000/svg" width="55" height="54" viewBox="0 0 55 54"><path fill="#0c9395" d="M53.75 9.2l-2.42-2.4a3.94 3.94 0 0 0-5.66 0L38.4 14 26.27 0H4.04A4.03 4.03 0 0 0 0 4v46c0 2.2 1.82 4 4.04 4h30.31c2.23 0 4.05-1.8 4.05-4V30l15.36-15.2c1.61-1.6 1.61-4 0-5.6zM26.27 3l9.5 11h-7.48c-1 0-2.02-1-2.02-2zm10.1 47c0 1-.8 2-2.02 2H4.05c-1.02 0-2.03-.8-2.03-2V4c0-1 .8-2 2.02-2h20.21v10c0 2.2 1.82 4 4.04 4h8.09L16.16 36l-2.02 10 10.1-2 12.13-12zM18 37.2l5.05 5-6.27 1.2zm6.66 3.6l-5.25-5.2 22.63-22.4 5.26 5.2zm27.69-27.4l-3.43 3.4-5.26-5.2 3.44-3.4c.8-.8 2.02-.8 2.83 0l2.42 2.4c.8.8.8 2 0 2.8z"/></svg>