<svg xmlns="http://www.w3.org/2000/svg" width="51" height="50" viewBox="0 0 51 50"><path fill="#0c9395" d="M27.66 9.1a13.14 13.14 0 0 0-22.4 9.28 13.07 13.07 0 0 0 13.12 13.11A13.09 13.09 0 0 0 31.5 18.38c0-3.51-1.36-6.8-3.84-9.28zM26.42 26.4a11.38 11.38 0 0 1-19.41-8.04A11.33 11.33 0 0 1 18.38 7.02a11.35 11.35 0 0 1 11.37 11.37c0 3.03-1.18 5.89-3.33 8.03zM18.38 8a.87.87 0 0 0 0 1.75A8.63 8.63 0 0 1 27 18.38a.88.88 0 0 0 1.76 0A10.4 10.4 0 0 0 18.38 8zm29.89 31.9l-13.4-13.4a18.3 18.3 0 0 0 1.88-8.13c0-4.9-1.91-9.52-5.38-12.99A18.24 18.24 0 0 0 18.38 0C13.47 0 8.86 1.91 5.39 5.38a18.25 18.25 0 0 0-5.38 13c0 4.9 1.91 9.52 5.38 12.99a18.24 18.24 0 0 0 12.99 5.38c2.86 0 5.63-.65 8.12-1.88l13.4 13.4a5.9 5.9 0 0 0 8.37 0 5.92 5.92 0 0 0 0-8.38zM6.7 29.3A15.9 15.9 0 0 1 2.01 18 15.9 15.9 0 0 1 6.7 6.69a15.88 15.88 0 0 1 11.31-4.68c4.27 0 8.28 1.66 11.31 4.68A15.89 15.89 0 0 1 34 18c0 4.27-1.66 8.29-4.68 11.31a15.91 15.91 0 0 1-11.31 4.68c-4.28 0-8.29-1.66-11.31-4.68zm40.32 17.7a3.32 3.32 0 0 1-4.73 0L29 33.72A23.98 23.98 0 0 0 33.73 29l13.29 13.3a3.35 3.35 0 0 1 0 4.72z"/></svg>